<mxfile host="app.diagrams.net" modified="2023-10-31T14:28:50.156Z" agent="Mozilla/5.0 (Windows NT 10.0; Win64; x64) AppleWebKit/537.36 (KHTML, like Gecko) Chrome/118.0.0.0 Safari/537.36" etag="leYPL0Kb_CTNB0A3U5T4" version="22.0.8" type="device">
  <diagram name="Trang-1" id="HfjGKaM4Jlf45k30Cpft">
    <mxGraphModel dx="1118" dy="604" grid="1" gridSize="10" guides="1" tooltips="1" connect="1" arrows="1" fold="1" page="1" pageScale="1" pageWidth="827" pageHeight="1169" math="0" shadow="0">
      <root>
        <mxCell id="0" />
        <mxCell id="1" parent="0" />
        <mxCell id="U9f_UbkCB_ZfHCGCZS1d-1" value="Chủ trọ" style="shape=umlActor;verticalLabelPosition=bottom;verticalAlign=top;html=1;outlineConnect=0;fontFamily=Times New Roman;" vertex="1" parent="1">
          <mxGeometry x="70" y="130" width="30" height="60" as="geometry" />
        </mxCell>
        <mxCell id="U9f_UbkCB_ZfHCGCZS1d-2" value="Quản lý khu trọ" style="ellipse;whiteSpace=wrap;html=1;" vertex="1" parent="1">
          <mxGeometry x="340" y="120" width="120" height="80" as="geometry" />
        </mxCell>
        <mxCell id="U9f_UbkCB_ZfHCGCZS1d-3" value="Đăng nhập" style="ellipse;whiteSpace=wrap;html=1;" vertex="1" parent="1">
          <mxGeometry x="140" y="280" width="120" height="80" as="geometry" />
        </mxCell>
        <mxCell id="U9f_UbkCB_ZfHCGCZS1d-4" value="Thêm khu trọ" style="ellipse;whiteSpace=wrap;html=1;" vertex="1" parent="1">
          <mxGeometry x="360" y="280" width="120" height="80" as="geometry" />
        </mxCell>
        <mxCell id="U9f_UbkCB_ZfHCGCZS1d-5" value="Cập nhật khu trọ" style="ellipse;whiteSpace=wrap;html=1;" vertex="1" parent="1">
          <mxGeometry x="570" y="280" width="120" height="80" as="geometry" />
        </mxCell>
        <mxCell id="U9f_UbkCB_ZfHCGCZS1d-6" value="Xem danh sách&lt;br&gt;khu trọ" style="ellipse;whiteSpace=wrap;html=1;" vertex="1" parent="1">
          <mxGeometry x="570" y="126" width="120" height="80" as="geometry" />
        </mxCell>
        <mxCell id="U9f_UbkCB_ZfHCGCZS1d-7" value="Xóa khu trọ" style="ellipse;whiteSpace=wrap;html=1;" vertex="1" parent="1">
          <mxGeometry x="570" y="10" width="120" height="80" as="geometry" />
        </mxCell>
        <mxCell id="U9f_UbkCB_ZfHCGCZS1d-8" value="" style="endArrow=classic;html=1;rounded=0;entryX=0;entryY=0.5;entryDx=0;entryDy=0;" edge="1" parent="1" source="U9f_UbkCB_ZfHCGCZS1d-1" target="U9f_UbkCB_ZfHCGCZS1d-2">
          <mxGeometry width="50" height="50" relative="1" as="geometry">
            <mxPoint x="390" y="240" as="sourcePoint" />
            <mxPoint x="440" y="190" as="targetPoint" />
          </mxGeometry>
        </mxCell>
        <mxCell id="U9f_UbkCB_ZfHCGCZS1d-9" value="" style="endArrow=classic;html=1;rounded=0;exitX=0.094;exitY=0.888;exitDx=0;exitDy=0;exitPerimeter=0;entryX=1;entryY=0;entryDx=0;entryDy=0;dashed=1;" edge="1" parent="1" source="U9f_UbkCB_ZfHCGCZS1d-2" target="U9f_UbkCB_ZfHCGCZS1d-3">
          <mxGeometry width="50" height="50" relative="1" as="geometry">
            <mxPoint x="250" y="270" as="sourcePoint" />
            <mxPoint x="300" y="220" as="targetPoint" />
          </mxGeometry>
        </mxCell>
        <mxCell id="U9f_UbkCB_ZfHCGCZS1d-10" value="&amp;lt;&amp;lt;Include&amp;gt;&amp;gt;" style="text;html=1;strokeColor=none;fillColor=none;align=center;verticalAlign=middle;whiteSpace=wrap;rounded=0;" vertex="1" parent="1">
          <mxGeometry x="230" y="220" width="60" height="30" as="geometry" />
        </mxCell>
        <mxCell id="U9f_UbkCB_ZfHCGCZS1d-11" value="" style="endArrow=classic;html=1;rounded=0;dashed=1;entryX=0.351;entryY=0.025;entryDx=0;entryDy=0;entryPerimeter=0;" edge="1" parent="1" target="U9f_UbkCB_ZfHCGCZS1d-4">
          <mxGeometry width="50" height="50" relative="1" as="geometry">
            <mxPoint x="400" y="200" as="sourcePoint" />
            <mxPoint x="396" y="280" as="targetPoint" />
          </mxGeometry>
        </mxCell>
        <mxCell id="U9f_UbkCB_ZfHCGCZS1d-12" value="" style="endArrow=classic;html=1;rounded=0;dashed=1;entryX=0.181;entryY=0.004;entryDx=0;entryDy=0;entryPerimeter=0;exitX=1;exitY=1;exitDx=0;exitDy=0;" edge="1" parent="1" source="U9f_UbkCB_ZfHCGCZS1d-2" target="U9f_UbkCB_ZfHCGCZS1d-5">
          <mxGeometry width="50" height="50" relative="1" as="geometry">
            <mxPoint x="410" y="210" as="sourcePoint" />
            <mxPoint x="412" y="292" as="targetPoint" />
          </mxGeometry>
        </mxCell>
        <mxCell id="U9f_UbkCB_ZfHCGCZS1d-13" value="" style="endArrow=classic;html=1;rounded=0;dashed=1;entryX=0.007;entryY=0.419;entryDx=0;entryDy=0;entryPerimeter=0;exitX=1;exitY=0.5;exitDx=0;exitDy=0;" edge="1" parent="1" source="U9f_UbkCB_ZfHCGCZS1d-2" target="U9f_UbkCB_ZfHCGCZS1d-6">
          <mxGeometry width="50" height="50" relative="1" as="geometry">
            <mxPoint x="420" y="220" as="sourcePoint" />
            <mxPoint x="422" y="302" as="targetPoint" />
          </mxGeometry>
        </mxCell>
        <mxCell id="U9f_UbkCB_ZfHCGCZS1d-14" value="" style="endArrow=classic;html=1;rounded=0;dashed=1;entryX=0;entryY=0.5;entryDx=0;entryDy=0;exitX=1;exitY=0;exitDx=0;exitDy=0;" edge="1" parent="1" source="U9f_UbkCB_ZfHCGCZS1d-2" target="U9f_UbkCB_ZfHCGCZS1d-7">
          <mxGeometry width="50" height="50" relative="1" as="geometry">
            <mxPoint x="430" y="230" as="sourcePoint" />
            <mxPoint x="432" y="312" as="targetPoint" />
          </mxGeometry>
        </mxCell>
        <mxCell id="U9f_UbkCB_ZfHCGCZS1d-15" value="&amp;lt;&amp;lt;extend&amp;gt;&amp;gt;" style="text;html=1;strokeColor=none;fillColor=none;align=center;verticalAlign=middle;whiteSpace=wrap;rounded=0;" vertex="1" parent="1">
          <mxGeometry x="340" y="230" width="60" height="30" as="geometry" />
        </mxCell>
        <mxCell id="U9f_UbkCB_ZfHCGCZS1d-17" value="&amp;lt;&amp;lt;extend&amp;gt;&amp;gt;" style="text;html=1;strokeColor=none;fillColor=none;align=center;verticalAlign=middle;whiteSpace=wrap;rounded=0;" vertex="1" parent="1">
          <mxGeometry x="460" y="230" width="60" height="30" as="geometry" />
        </mxCell>
        <mxCell id="U9f_UbkCB_ZfHCGCZS1d-19" value="&amp;lt;&amp;lt;extend&amp;gt;&amp;gt;" style="text;html=1;strokeColor=none;fillColor=none;align=center;verticalAlign=middle;whiteSpace=wrap;rounded=0;" vertex="1" parent="1">
          <mxGeometry x="490" y="160" width="60" height="30" as="geometry" />
        </mxCell>
        <mxCell id="U9f_UbkCB_ZfHCGCZS1d-20" value="&amp;lt;&amp;lt;extend&amp;gt;&amp;gt;" style="text;html=1;strokeColor=none;fillColor=none;align=center;verticalAlign=middle;whiteSpace=wrap;rounded=0;" vertex="1" parent="1">
          <mxGeometry x="510" y="80" width="60" height="30" as="geometry" />
        </mxCell>
      </root>
    </mxGraphModel>
  </diagram>
</mxfile>
